# xmcd
#
# Track frame offsets: 
#        150
#        17995
#        40857
#        60179
#        83334
#        108004
#        147959
#        177954
#        208346
#        238018
#        273195
#
# Disc length: 3876 seconds
#
# Revision: 0
# Processed by: cddbd v1.5.2PL0 Copyright (c) Steve Scherf et al.
# Submitted via: ExactAudioCopy v1.0b1
#
DISCID=890f220b
DTITLE=Billy Price and Fred Chapellier - Live on Stage-Night Work Tour
DYEAR=2010
DGENRE=Blues
TTITLE0=Keep It To yourself
TTITLE1=She Left Me With The Blues
TTITLE2=Don't Let My Baby Ride
TTITLE3=Night Work
TTITLE4=When The Light Came On
TTITLE5=I'll Take Car Of You
TTITLE6=A Nickel and A Nail
TTITLE7=Under The Influene
TTITLE8=Last Two Dollars
TTITLE9=Love And Happiness
TTITLE10=Good Time Charlie
EXTD=
EXTT0=
EXTT1=
EXTT2=
EXTT3=
EXTT4=
EXTT5=
EXTT6=
EXTT7=
EXTT8=
EXTT9=
EXTT10=
PLAYORDER=
